<?xml version="1.0" encoding="UTF-8" standalone="no"?>
<!-- Created with Inkscape (http://www.inkscape.org/) -->

<svg
   xmlns:dc="http://purl.org/dc/elements/1.1/"
   xmlns:cc="http://creativecommons.org/ns#"
   xmlns:rdf="http://www.w3.org/1999/02/22-rdf-syntax-ns#"
   xmlns:svg="http://www.w3.org/2000/svg"
   xmlns="http://www.w3.org/2000/svg"
   xmlns:sodipodi="http://sodipodi.sourceforge.net/DTD/sodipodi-0.dtd"
   xmlns:inkscape="http://www.inkscape.org/namespaces/inkscape"
   width="43.366173mm"
   height="10.006416mm"
   viewBox="0 0 153.65967 35.455806"
   id="svg2"
   version="1.1"
   inkscape:version="0.91 r"
   sodipodi:docname="logo.svg">
  <defs
     id="defs4" />
  <sodipodi:namedview
     id="base"
     pagecolor="#ffffff"
     bordercolor="#666666"
     borderopacity="1.0"
     inkscape:pageopacity="0.0"
     inkscape:pageshadow="2"
     inkscape:zoom="2.8"
     inkscape:cx="49.508801"
     inkscape:cy="-5.698307"
     inkscape:document-units="px"
     inkscape:current-layer="text3336"
     showgrid="false"
     inkscape:window-width="1855"
     inkscape:window-height="1056"
     inkscape:window-x="65"
     inkscape:window-y="24"
     inkscape:window-maximized="1"
     fit-margin-top="0"
     fit-margin-left="0"
     fit-margin-right="0"
     fit-margin-bottom="0" />
  <metadata
     id="metadata7">
    <rdf:RDF>
      <cc:Work
         rdf:about="">
        <dc:format>image/svg+xml</dc:format>
        <dc:type
           rdf:resource="http://purl.org/dc/dcmitype/StillImage" />
        <dc:title></dc:title>
      </cc:Work>
    </rdf:RDF>
  </metadata>
  <g
     inkscape:label="Layer 1"
     inkscape:groupmode="layer"
     id="layer1"
     transform="translate(-122.23323,-124.16546)">
    <g
       style="font-style:normal;font-weight:normal;font-size:40px;line-height:125%;font-family:sans-serif;letter-spacing:0px;word-spacing:0px;fill:#000000;fill-opacity:1;stroke:none;stroke-width:1px;stroke-linecap:butt;stroke-linejoin:miter;stroke-opacity:1"
       id="text3336">
      <path
         d="m 133.59323,127.73898 c -7.2,0 -11.36,4.72 -11.36,13.24 0,8.28 3.96,12.88 10.84,12.88 2.6,0 4.84,-0.68 7.08,-1.92 l 0.28,-3.04 -0.4,-0.2 c -1.88,1.52 -4.28,2.44 -6.68,2.44 -4.92,0 -7.8,-3.6 -7.8,-10.44 0,-6.8 2.84,-10.28 7.88,-10.28 2.44,0 4.48,0.84 6.16,2.24 l 0.36,-0.08 0.64,-2.92 c -1.92,-1.24 -4.28,-1.92 -7,-1.92 z"
         style="font-weight:normal;font-size:40px;fill:#555753"
         id="path3365"
         inkscape:connector-curvature="0" />
      <path
         d="m 163.73448,153.57898 -8.56,-25.64 -3.72,0 -9.4,25.64 3.2,0 0.64,-2.72 1.56,-4.24 5.2,-0.12 5.76,0.12 1.44,4.4 0.6,2.56 3.28,0 z m -6.2,-9.68 -4.6,0.08 -4.48,-0.08 4.64,-12.64 0.28,0 4.16,12.64 z"
         style="font-weight:normal;font-size:40px;fill:#555753"
         id="path3367"
         inkscape:connector-curvature="0" />
      <path
         d="m 178.77948,143.21898 c 3.32,-1.56 5.28,-4.44 5.28,-8 0,-4.72 -2.88,-7.32 -7.88,-7.32 l -7.84,0.04 0.2,17.92 -0.2,7.72 3.24,0 -0.16,-8 0,-1.52 4.68,0 c 1.8,3.24 3.8,6.48 5.88,9.6 l 0.44,0.28 c 1.04,-0.12 2,-0.36 2.96,-0.72 l 0.04,-0.4 c -2.4,-3.16 -4.64,-6.32 -6.64,-9.6 z m -7.32,-1.88 0.12,-10.68 3.88,-0.12 c 3.44,0.12 5.28,1.64 5.28,4.96 0,3.12 -1.56,5.12 -4.48,5.96 l -4.8,-0.12 z"
         style="font-weight:normal;font-size:40px;fill:#555753"
         id="path3369"
         inkscape:connector-curvature="0" />
      <path
         d="m 193.60698,145.57898 0.2,-17.64 -3.28,0 0.2,17.92 -0.2,7.72 3.24,0 -0.16,-8 z"
         style="font-weight:normal;font-size:40px;fill:#555753"
         id="path3371"
         inkscape:connector-curvature="0" />
      <path
         d="m 208.48099,146.46363 c -0.49345,0.41534 -0.80451,0.71608 -0.94755,0.8235 -2.51003,2.28783 -2.7961,2.50269 -3.347,2.60323 -0.35415,0.0646 -0.79448,-0.34293 -0.89502,-0.89383 l -0.0646,-0.35415 -0.0646,-0.35415 c -0.12927,-0.7083 0.24824,-8.66538 0.69157,-14.47945 0.47895,-6.06454 0.70383,-6.83747 2.43523,-7.15347 0.51155,-0.0934 0.91224,-0.12583 1.97843,-0.0764 l 1.31142,-2.39436 c -0.86226,-0.0459 -1.30229,-0.006 -1.81384,0.0871 -1.574,0.28727 -2.7183,1.14668 -4.29829,3.18345 -1.44413,1.89 -1.76926,2.55925 -2.02227,4.06921 -0.14244,1.00185 -0.42642,4.3472 -0.50393,6.15042 l -0.58534,12.83363 c 0.004,0.24328 0.007,0.48656 0.0506,0.72266 0.21545,1.18051 1.10703,2.27827 1.73663,2.16336 l 0.2361,-0.0431 0.11805,-0.0215 c 0.3935,-0.0718 1.83793,-1.5146 6.1425,-6.00034 l -0.15799,-0.8657 z"
         style="font-style:italic;font-variant:normal;font-weight:500;font-stretch:normal;font-family:'URW Chancery L';-inkscape-font-specification:'URW Chancery L Medium Italic';fill:#ce5c00"
         id="path3373"
         inkscape:connector-curvature="0" />
      <path
         d="m 217.95518,133.2682 c -1.574,0.28726 -3.88413,1.88804 -5.88979,4.04316 -2.17368,2.34843 -3.19754,6.764 -2.48656,10.65965 0.43808,2.40036 2.05607,3.69083 4.14162,3.3102 1.1018,-0.20108 2.13178,-0.79567 3.76953,-2.07043 1.76641,-1.46088 2.88542,-2.68163 3.42136,-3.7553 1.18619,-2.41216 1.74159,-6.49828 1.24605,-9.21343 -0.3878,-2.1249 -2.11666,-3.35448 -4.20221,-2.97385 z m -1.70866,2.2229 c 1.574,-0.28727 2.83783,1.06784 3.26873,3.42884 0.30163,1.6527 0.12418,3.79944 -0.50767,5.90714 -0.69245,2.44403 -1.88642,3.92242 -3.38172,4.19533 -1.61335,0.29444 -2.90217,-0.97478 -3.31152,-3.21773 -0.83308,-4.56461 1.17768,-9.81087 3.93218,-10.31358 z"
         style="font-style:italic;font-variant:normal;font-weight:500;font-stretch:normal;font-family:'URW Chancery L';-inkscape-font-specification:'URW Chancery L Medium Italic';fill:#ce5c00"
         id="path3375"
         inkscape:connector-curvature="0" />
      <path
         d="m 236.58474,137.67503 c -5.9e-4,-0.89443 0.0597,-1.67798 0.1022,-2.33631 l 0.18808,-2.31133 c 0.0141,-0.36851 0.0425,-0.65832 0.0387,-0.90161 0.67239,-0.32602 0.71174,-0.3332 1.60468,-2.56986 -3.21234,0.66759 -4.11739,0.83277 -4.55024,0.91177 -2.39317,0.47743 -3.04058,0.71757 -4.09181,1.64132 -1.67335,1.52522 -2.81016,2.8712 -3.44261,4.08446 -0.90041,1.7501 -1.44803,6.76999 -1.00995,9.17034 0.17954,0.98375 0.54491,1.64897 1.33251,2.39976 l -3.81427,4.72154 c -1.65151,2.09048 -2.31957,3.55421 -2.11848,4.65601 0.26572,1.45595 2.14794,1.96631 5.13854,1.42051 3.6202,-0.66072 6.26668,-2.2009 8.48659,-4.96437 1.42633,-1.76476 1.66902,-2.66293 1.78438,-6.70939 l 0.35163,-9.21284 z m -3.18708,11.7227 c -0.0806,2.45436 -0.26962,3.42405 -0.84147,4.30097 -0.68616,1.14175 -2.20615,1.94775 -4.5278,2.37146 -2.55775,0.46681 -4.06427,0.01 -4.29408,-1.24933 -0.29445,-1.61335 0.58846,-2.79101 9.99807,-13.16906 l -0.33472,7.74596 z m 1.65948,-16.97376 1.2592,-0.22981 c -0.16803,0.19331 -0.36822,0.43315 -0.54342,0.58711 -1.09403,1.13486 -1.30484,1.53928 -1.48663,2.54832 -0.14588,1.20578 -0.29865,2.81943 -0.4583,4.84094 -0.69364,0.65519 -1.50877,1.53585 -4.36172,4.61816 -0.83757,-0.57903 -1.22793,-1.15836 -1.40029,-2.10276 -0.24418,-1.3379 0.0754,-4.93372 0.55705,-6.97333 0.49255,-1.75698 1.24709,-2.3013 4.11964,-2.82556 0.27545,-0.0503 0.74765,-0.13645 1.25202,-0.26916 l 1.06245,-0.19391 z"
         style="font-style:italic;font-variant:normal;font-weight:500;font-stretch:normal;font-family:'URW Chancery L';-inkscape-font-specification:'URW Chancery L Medium Italic';fill:#ce5c00"
         id="path3377"
         inkscape:connector-curvature="0" />
      <circle
         style="fill:#729fcf"
         id="path3381"
         cx="274.46432"
         cy="137.00505"
         r="1.4285713" />
      <path
         style="fill:none;fill-rule:evenodd;stroke:#555753;stroke-width:0.97495818px;stroke-linecap:butt;stroke-linejoin:miter;stroke-opacity:1"
         d="m 201.78679,159.15235 c 16.48531,-4.68487 36.17513,-15.51866 49.49984,-14.77701 7.47045,0.4158 -3.59221,6.96757 -3.74474,6.84874 -4.42926,-3.45051 23.88686,-12.97351 23.88686,-12.97351"
         id="path3383"
         inkscape:connector-curvature="0"
         sodipodi:nodetypes="cssc" />
      <path
         d="m 249.46594,127.51726 c -1.574,0.28727 -3.88414,1.88805 -5.8898,4.04316 -2.17368,2.34843 -3.19754,6.76401 -2.48655,10.65966 0.43808,2.40035 2.05606,3.69082 4.14162,3.3102 1.1018,-0.20109 2.13178,-0.79568 3.76952,-2.07043 1.76642,-1.46089 2.88542,-2.68163 3.42137,-3.7553 1.18619,-2.41217 1.74158,-6.49828 1.24605,-9.21343 -0.38781,-2.1249 -2.11666,-3.35448 -4.20221,-2.97386 z m -1.70867,2.2229 c 1.574,-0.28727 2.83784,1.06784 3.26874,3.42884 0.30163,1.65271 0.12417,3.79945 -0.50768,5.90714 -0.69244,2.44404 -1.88641,3.92243 -3.38171,4.19533 -1.61335,0.29445 -2.90217,-0.97478 -3.31153,-3.21773 -0.83307,-4.5646 1.17768,-9.81086 3.93218,-10.31358 z"
         style="font-style:italic;font-variant:normal;font-weight:500;font-stretch:normal;font-family:'URW Chancery L';-inkscape-font-specification:'URW Chancery L Medium Italic';fill:#ce5c00"
         id="path3379"
         inkscape:connector-curvature="0" />
    </g>
  </g>
</svg>
